<?xml version="1.0" encoding="UTF-8"?>
<svg xmlns="http://www.w3.org/2000/svg" xmlns:xlink="http://www.w3.org/1999/xlink" width="20pt" height="20pt" viewBox="0 0 20 20" version="1.1">
<defs>
<linearGradient id="linear0" gradientUnits="userSpaceOnUse" x1="261.0342" y1="14.0686" x2="261.0342" y2="349.5351" gradientTransform="matrix(0.0372891,0.0116328,-0.0116328,0.0372891,2.387922,0.162152)">
<stop offset="0" style="stop-color:rgb(99.215686%,85.098039%,0%);stop-opacity:1;"/>
<stop offset="1" style="stop-color:rgb(88.627451%,62.352941%,14.509804%);stop-opacity:1;"/>
</linearGradient>
<linearGradient id="linear1" gradientUnits="userSpaceOnUse" x1="417.1527" y1="-7.9987" x2="417.1527" y2="60.5246" gradientTransform="matrix(0.0372891,0.0116328,-0.0116328,0.0372891,2.387922,0.162152)">
<stop offset="0" style="stop-color:rgb(99.215686%,85.098039%,0%);stop-opacity:1;"/>
<stop offset="1" style="stop-color:rgb(90.196078%,63.921569%,13.72549%);stop-opacity:1;"/>
</linearGradient>
<linearGradient id="linear2" gradientUnits="userSpaceOnUse" x1="104.9157" y1="304.2383" x2="104.9157" y2="372.7617" gradientTransform="matrix(0.0372891,0.0116328,-0.0116328,0.0372891,2.387922,0.162152)">
<stop offset="0" style="stop-color:rgb(99.215686%,85.098039%,0%);stop-opacity:1;"/>
<stop offset="1" style="stop-color:rgb(90.196078%,63.921569%,13.72549%);stop-opacity:1;"/>
</linearGradient>
<linearGradient id="linear3" gradientUnits="userSpaceOnUse" x1="481.8142" y1="162.2933" x2="481.8142" y2="202.4319" gradientTransform="matrix(0.0372891,0.0116328,-0.0116328,0.0372891,2.387922,0.162152)">
<stop offset="0" style="stop-color:rgb(99.215686%,85.098039%,0%);stop-opacity:1;"/>
<stop offset="1" style="stop-color:rgb(90.196078%,63.921569%,13.72549%);stop-opacity:1;"/>
</linearGradient>
<linearGradient id="linear4" gradientUnits="userSpaceOnUse" x1="40.2544" y1="162.3311" x2="40.2544" y2="202.4697" gradientTransform="matrix(0.0372891,0.0116328,-0.0116328,0.0372891,2.387922,0.162152)">
<stop offset="0" style="stop-color:rgb(99.215686%,85.098039%,0%);stop-opacity:1;"/>
<stop offset="1" style="stop-color:rgb(90.196078%,63.921569%,13.72549%);stop-opacity:1;"/>
</linearGradient>
<linearGradient id="linear5" gradientUnits="userSpaceOnUse" x1="104.9157" y1="-7.9987" x2="104.9157" y2="60.5246" gradientTransform="matrix(0.0372891,0.0116328,-0.0116328,0.0372891,2.387922,0.162152)">
<stop offset="0" style="stop-color:rgb(99.215686%,85.098039%,0%);stop-opacity:1;"/>
<stop offset="1" style="stop-color:rgb(90.196078%,63.921569%,13.72549%);stop-opacity:1;"/>
</linearGradient>
<linearGradient id="linear6" gradientUnits="userSpaceOnUse" x1="417.1527" y1="304.2383" x2="417.1527" y2="372.7617" gradientTransform="matrix(0.0372891,0.0116328,-0.0116328,0.0372891,2.387922,0.162152)">
<stop offset="0" style="stop-color:rgb(99.215686%,85.098039%,0%);stop-opacity:1;"/>
<stop offset="1" style="stop-color:rgb(90.196078%,63.921569%,13.72549%);stop-opacity:1;"/>
</linearGradient>
<linearGradient id="linear7" gradientUnits="userSpaceOnUse" x1="261.0533" y1="363.0227" x2="261.0533" y2="443.2999" gradientTransform="matrix(0.0372891,0.0116328,-0.0116328,0.0372891,2.387922,0.162152)">
<stop offset="0" style="stop-color:rgb(99.215686%,85.098039%,0%);stop-opacity:1;"/>
<stop offset="1" style="stop-color:rgb(90.196078%,63.921569%,13.72549%);stop-opacity:1;"/>
</linearGradient>
<linearGradient id="linear8" gradientUnits="userSpaceOnUse" x1="261.0155" y1="-78.5369" x2="261.0155" y2="1.7398" gradientTransform="matrix(0.0372891,0.0116328,-0.0116328,0.0372891,2.387922,0.162152)">
<stop offset="0" style="stop-color:rgb(99.215686%,85.098039%,0%);stop-opacity:1;"/>
<stop offset="1" style="stop-color:rgb(90.196078%,63.921569%,13.72549%);stop-opacity:1;"/>
</linearGradient>
<filter id="alpha" filterUnits="objectBoundingBox" x="0%" y="0%" width="100%" height="100%">
  <feColorMatrix type="matrix" in="SourceGraphic" values="0 0 0 0 1 0 0 0 0 1 0 0 0 0 1 0 0 0 1 0"/>
</filter>
<mask id="mask0">
  <g filter="url(#alpha)">
<rect x="0" y="0" width="20" height="20" style="fill:rgb(0%,0%,0%);fill-opacity:0.501961;stroke:none;"/>
  </g>
</mask>
<clipPath id="clip1">
  <rect width="20" height="20"/>
</clipPath>
<g id="surface6" clip-path="url(#clip1)">
<path style=" stroke:none;fill-rule:nonzero;fill:rgb(83.529412%,50.588235%,15.686275%);fill-opacity:1;" d="M 9.714844 16.503906 C 11.417969 16.558594 13.378906 15.945312 14.546875 14.660156 C 13.304688 15.296875 11.671875 16.042969 9.800781 15.984375 C 7.929688 15.925781 6.9375 15.496094 5.894531 15.03125 C 6.761719 15.734375 7.988281 16.449219 9.714844 16.503906 Z M 9.714844 16.503906 "/>
</g>
</defs>
<g id="surface1">
<path style=" stroke:none;fill-rule:nonzero;fill:url(#linear0);" d="M 16.558594 9.976562 C 16.558594 13.59375 13.625 16.527344 10.007812 16.527344 C 6.390625 16.527344 3.457031 13.59375 3.457031 9.976562 C 3.457031 6.359375 6.390625 3.425781 10.007812 3.425781 C 13.625 3.425781 16.558594 6.359375 16.558594 9.976562 Z M 16.558594 9.976562 "/>
<path style=" stroke:none;fill-rule:nonzero;fill:url(#linear1);" d="M 19.027344 5.265625 C 18.828125 4.882812 18.351562 4.734375 17.96875 4.933594 L 16.578125 5.664062 C 16.195312 5.863281 16.046875 6.339844 16.246094 6.722656 C 16.445312 7.105469 16.921875 7.253906 17.304688 7.054688 L 18.695312 6.328125 C 19.078125 6.125 19.226562 5.648438 19.027344 5.265625 Z M 19.027344 5.265625 "/>
<path style=" stroke:none;fill-rule:nonzero;fill:url(#linear2);" d="M 3.75 13.277344 C 3.550781 12.894531 3.074219 12.746094 2.691406 12.945312 L 1.300781 13.671875 C 0.917969 13.871094 0.769531 14.347656 0.96875 14.730469 C 1.167969 15.113281 1.644531 15.261719 2.027344 15.0625 L 3.421875 14.335938 C 3.804688 14.132812 3.953125 13.660156 3.75 13.277344 Z M 3.75 13.277344 "/>
<path style=" stroke:none;fill-rule:nonzero;fill:url(#linear3);" d="M 19.730469 13.035156 C 19.859375 12.621094 19.628906 12.183594 19.214844 12.054688 L 17.71875 11.585938 C 17.304688 11.457031 16.867188 11.6875 16.738281 12.101562 C 16.609375 12.515625 16.839844 12.953125 17.253906 13.082031 L 18.75 13.550781 C 19.160156 13.679688 19.601562 13.449219 19.730469 13.035156 Z M 19.730469 13.035156 "/>
<path style=" stroke:none;fill-rule:nonzero;fill:url(#linear4);" d="M 3.265625 7.898438 C 3.394531 7.484375 3.164062 7.046875 2.75 6.917969 L 1.253906 6.449219 C 0.839844 6.320312 0.402344 6.550781 0.273438 6.964844 C 0.144531 7.378906 0.375 7.816406 0.789062 7.945312 L 2.285156 8.414062 C 2.695312 8.542969 3.132812 8.3125 3.265625 7.898438 Z M 3.265625 7.898438 "/>
<path style=" stroke:none;fill-rule:nonzero;fill:url(#linear5);" d="M 5.265625 0.972656 C 4.882812 1.171875 4.734375 1.648438 4.933594 2.03125 L 5.664062 3.421875 C 5.863281 3.804688 6.339844 3.953125 6.722656 3.753906 C 7.105469 3.554688 7.253906 3.078125 7.054688 2.695312 L 6.328125 1.304688 C 6.125 0.921875 5.648438 0.773438 5.265625 0.972656 Z M 5.265625 0.972656 "/>
<path style=" stroke:none;fill-rule:nonzero;fill:url(#linear6);" d="M 13.277344 16.25 C 12.894531 16.449219 12.746094 16.925781 12.945312 17.308594 L 13.671875 18.699219 C 13.871094 19.082031 14.347656 19.230469 14.730469 19.03125 C 15.113281 18.832031 15.261719 18.355469 15.0625 17.972656 L 14.335938 16.578125 C 14.132812 16.195312 13.660156 16.046875 13.277344 16.25 Z M 13.277344 16.25 "/>
<path style=" stroke:none;fill-rule:nonzero;fill:url(#linear7);" d="M 6.964844 19.730469 C 7.378906 19.859375 7.816406 19.628906 7.945312 19.214844 L 8.414062 17.71875 C 8.542969 17.304688 8.3125 16.867188 7.898438 16.738281 C 7.484375 16.609375 7.046875 16.839844 6.917969 17.253906 L 6.449219 18.75 C 6.320312 19.160156 6.550781 19.601562 6.964844 19.730469 Z M 6.964844 19.730469 "/>
<path style=" stroke:none;fill-rule:nonzero;fill:url(#linear8);" d="M 12.101562 3.265625 C 12.515625 3.394531 12.953125 3.164062 13.082031 2.75 L 13.550781 1.253906 C 13.679688 0.839844 13.449219 0.402344 13.035156 0.273438 C 12.621094 0.144531 12.183594 0.375 12.054688 0.789062 L 11.585938 2.285156 C 11.457031 2.695312 11.6875 3.132812 12.101562 3.265625 Z M 12.101562 3.265625 "/>
<use xlink:href="#surface6" mask="url(#mask0)"/>
<path style=" stroke:none;fill-rule:nonzero;fill:rgb(0%,0%,0%);fill-opacity:1;" d="M 10.285156 3.371094 C 8.601562 3.316406 6.660156 3.933594 5.503906 5.214844 C 6.734375 4.578125 8.347656 3.832031 10.195312 3.890625 C 12.042969 3.949219 13.027344 4.378906 14.058594 4.84375 C 13.203125 4.136719 11.992188 3.421875 10.285156 3.371094 Z M 10.285156 3.371094 "/>
</g>
</svg>
